<?xml version="1.0" encoding="UTF-8"?>
<svg width="20px" height="18px" viewBox="0 0 20 18" version="1.1" xmlns="http://www.w3.org/2000/svg" xmlns:xlink="http://www.w3.org/1999/xlink">
    <!-- Generator: Sketch 53.2 (72643) - https://sketchapp.com -->
    <title>zmdi-email</title>
    <desc>Created with Sketch.</desc>
    <g id="Page-1" stroke="none" stroke-width="1" fill="none" fill-rule="evenodd">
        <g id="Resume---Amoo-Majid-version" transform="translate(-170.000000, -29.000000)" fill="#000000" fill-rule="nonzero">
            <g id="contact" transform="translate(40.000000, 26.000000)">
                <g id="email" transform="translate(130.000000, 0.000000)">
                    <g id="zmdi-email" transform="translate(-0.000000, 0.000000)">
                        <path fill="#c8c7f5" d="M17.6649685,3.69230769 C18.2169987,3.69230769 18.684691,3.89473684 19.0680454,4.29959514 C19.4513997,4.70445344 19.6430769,5.19838057 19.6430769,5.78137652 L19.6430769,18.2186235 C19.6430769,18.8016194 19.4513997,19.2955466 19.0680454,19.7004049 C18.684691,20.1052632 18.2169987,20.3076923 17.6649685,20.3076923 L1.97810845,20.3076923 C1.42607818,20.3076923 0.958385876,20.1052632 0.575031526,19.7004049 C0.191677175,19.2955466 0,18.8016194 0,18.2186235 L0,5.78137652 C0,5.19838057 0.191677175,4.70445344 0.575031526,4.29959514 C0.958385876,3.89473684 1.42607818,3.69230769 1.97810845,3.69230769 L17.6649685,3.69230769 Z M17.6649685,7.87044534 L17.6649685,5.78137652 L9.7985372,10.9797571 L1.97810845,5.78137652 L1.97810845,7.87044534 L9.7985372,13.0202429 L17.6649685,7.87044534 Z" id="Shape"></path>
                        <rect id="Rectangle" fill-opacity="0" x="0" y="0" width="19.6430769" height="24"></rect>
                    </g>
                </g>
            </g>
        </g>
    </g>
</svg>