<?xml version="1.0" encoding="UTF-8"?>
<svg width="16px" height="16px" viewBox="0 0 16 16" version="1.1" xmlns="http://www.w3.org/2000/svg" xmlns:xlink="http://www.w3.org/1999/xlink">
    <!-- Generator: Sketch 53.2 (72643) - https://sketchapp.com -->
    <title>ant-design:github</title>
    <desc>Created with Sketch.</desc>
    <g id="Page-1" stroke="none" stroke-width="1" fill="none" fill-rule="evenodd">
        <g id="Resume---Amoo-Majid-version" transform="translate(-399.000000, -165.000000)" fill="#000000" fill-rule="nonzero">
            <g id="technical-projects" transform="translate(306.000000, 116.000000)">
                <g id="eatup-project" transform="translate(7.000000, 47.000000)">
                    <g id="heading">
                        <g id="github-demo" transform="translate(63.000000, 0.000000)">
                            <g id="github" transform="translate(21.000000, 0.000000)">
                                <g id="ant-design:github">
                                    <path fill="#c8c7f5" d="M10.0008938,2.00000069 C5.58038208,1.99816456 2,5.6740882 2,10.2111548 C2,13.7989444 4.23974975,16.8487492 7.35895431,17.9687859 C7.7790191,18.0771173 7.71466875,17.7704843 7.71466875,17.561166 L7.71466875,16.1381685 C5.28901799,16.4301125 5.19070495,14.7812717 5.02804156,14.5058528 C4.69913976,13.9293093 3.92157301,13.7824193 4.15394928,13.5070004 C4.7062898,13.2150564 5.26935538,13.5804455 5.92179645,14.5701172 C6.39369903,15.2880423 7.31426656,15.1668581 7.78080661,15.0475099 C7.88269467,14.6160203 8.10077086,14.2304339 8.40107251,13.9311455 C5.88783376,13.4684418 4.84035303,11.8930459 4.84035303,10.0201977 C4.84035303,9.11131551 5.13171713,8.27587832 5.70372025,7.60202019 C5.33906826,6.49116414 5.73768294,5.54005103 5.79130823,5.39866935 C6.82985141,5.30319081 7.90950732,6.16249764 7.99352028,6.23043429 C8.5833985,6.0670191 9.25728969,5.9807212 10.0116188,5.9807212 C10.769523,5.9807212 11.4452017,6.07069135 12.0404424,6.23594267 C12.242431,6.07803586 13.2434365,5.33991333 14.2086918,5.42988349 C14.2605295,5.57126517 14.6502067,6.50034477 14.3070048,7.59651181 C14.886158,8.27220606 15.1810971,9.11498776 15.1810971,10.0257061 C15.1810971,11.9022266 14.1264663,13.4794585 11.6060775,13.9348177 C12.0421625,14.3753422 12.2875698,14.9774272 12.2871188,15.6056921 L12.2871188,17.6713335 C12.3014188,17.8365848 12.2871188,18 12.5552452,18 C15.720925,16.903833 18,13.8319947 18,10.2129909 C18,5.6740882 14.4178304,2.00000069 10.0008938,2.00000069 Z" id="Path"></path>
                                    <rect id="Rectangle" fill-opacity="0" x="0" y="0" width="19" height="19"></rect>
                                </g>
                            </g>
                        </g>
                    </g>
                </g>
            </g>
        </g>
    </g>
</svg>