<?xml version="1.0" encoding="UTF-8"?>
<svg width="23px" height="23px" viewBox="0 0 23 23" version="1.1" xmlns="http://www.w3.org/2000/svg" xmlns:xlink="http://www.w3.org/1999/xlink">
    <!-- Generator: Sketch 53.2 (72643) - https://sketchapp.com -->
    <title>ant-design:medium-circle</title>
    <desc>Created with Sketch.</desc>
    <g id="Page-1" stroke="none" stroke-width="1" fill="none" fill-rule="evenodd">
        <g id="Resume---Amoo-Majid-version" transform="translate(-456.000000, -27.000000)" fill="#000000" fill-rule="nonzero">
            <g id="contact" transform="translate(40.000000, 26.000000)">
                <g id="medium" transform="translate(415.000000, 0.000000)">
                    <g id="ant-design:medium-circle">
                        <path fill="#c8c7f5" d="M12.5701459,1.77777778 C6.62016995,1.77777778 1.79573513,6.55396825 1.79573513,12.4444444 C1.79573513,18.3349206 6.62016995,23.1111111 12.5701459,23.1111111 C18.5201219,23.1111111 23.3445567,18.3349206 23.3445567,12.4444444 C23.3445567,6.55396825 18.5201219,1.77777778 12.5701459,1.77777778 Z M18.7269521,7.81825397 L17.7457111,8.74920635 C17.659131,8.81349206 17.618246,8.91825397 17.635081,9.02063492 L17.635081,15.8706349 C17.618246,15.9753968 17.659131,16.0801587 17.7457111,16.1420635 L18.707712,17.0730159 L18.707712,17.2801587 L13.8784672,17.2801587 L13.8784672,17.0825397 L14.8717332,16.1277778 C14.9703383,16.0301587 14.9703383,16.0015873 14.9703383,15.8563492 L14.9703383,10.3134921 L12.2045855,17.2563492 L11.8318102,17.2563492 L8.61391695,10.3134921 L8.61391695,14.968254 C8.58505692,15.1634921 8.65480199,15.3611111 8.79429213,15.5015873 L10.0881834,17.0515873 L10.0881834,17.2587302 L6.41333975,17.2587302 L6.41333975,17.0515873 L7.70723104,15.5015873 C7.84546927,15.36022 7.90791497,15.162392 7.87558121,14.968254 L7.87558121,9.58730159 C7.89241623,9.43730159 7.83469617,9.29206349 7.71925605,9.18968254 L6.5696649,7.81825397 L6.5696649,7.61111111 L10.1410935,7.61111111 L12.8972262,13.5992063 L15.3238737,7.61587302 L18.7269521,7.61587302 L18.7269521,7.81825397 Z" id="Shape"></path>
                        <rect id="Rectangle" fill-opacity="0" x="0" y="0" width="24.2424242" height="24"></rect>
                    </g>
                </g>
            </g>
        </g>
    </g>
</svg>