<?xml version="1.0" encoding="UTF-8"?>
<svg preserveAspectRatio="none" width="499px" height="163px" viewBox="0 0 499 163" version="1.1" xmlns="http://www.w3.org/2000/svg" xmlns:xlink="http://www.w3.org/1999/xlink">
    <!-- Generator: Sketch 53.2 (72643) - https://sketchapp.com -->
    <title>path151</title>
    <desc>Created with Sketch.</desc>
    <g id="Page-1" stroke="none" stroke-width="1" fill="none" fill-rule="evenodd">
        <g id="Artboard" transform="translate(-579.000000, -596.000000)" fill="#000A61" fill-rule="nonzero">
            <path d="M1070.10573,747.804286 L1072.31828,747.846995 L1072.31828,745.519353 L1070.10573,745.588345 L1070.13846,743.730502 L1068.04723,743.696007 L1068.04723,739.00787 L1066.73394,738.922452 L1066.62996,737.626398 L1063.13686,736.93484 L1063.27166,735.650284 L1065.21269,735.68478 L1065.26276,734.820744 L1066.57797,734.433077 L1066.88222,733.35221 L1068.09922,733.051605 L1067.1364,725.104441 C1067.1364,725.104441 1071.59232,720.65449 1071.43827,720.65449 C1071.28614,720.65449 1068.75393,717.891545 1068.75393,717.891545 L1066.27372,719.619618 L1063.54124,715.097389 L1061.1111,715.097389 L1059.35684,713.096636 L1060.77796,711.759515 L1060.92816,709.729194 L1063.51043,709.425303 L1061.13228,708.822449 L1063.51043,707.613455 L1060.42172,707.526394 L1062.19523,705.755612 L1059.3087,707.008958 L1059.05645,704.763449 L1057.84137,706.879188 L1057.03068,706.836479 L1055.30916,705.627485 L1056.168,707.743225 L1054.34442,707.528037 L1054.34442,705.954374 L1053.91115,705.755612 L1053.73785,700.012892 L1052.59787,698.657702 L1052.62483,698.37188 L1054.70066,698.330813 L1054.70066,696.730868 L1054.19422,696.16908 L1052.67297,696.082019 L1052.5247,695.615505 L1054.19422,695.436456 L1054.19422,694.140401 L1053.63771,693.389708 L1053.58572,692.757286 L1052.97915,692.154432 L1053.84761,690.600481 L1053.84761,689.475262 L1050.34488,693.389708 L1050.34488,695.002795 L1050.95338,695.615505 L1051.10551,695.996601 L1050.49701,695.996601 L1049.88851,696.688159 L1049.88851,698.414589 L1050.80126,698.846607 L1050.80896,700.844075 L1051.97012,700.844075 L1051.97012,702.856327 L1050.09455,710.146428 L1050.09455,713.044071 L1051.16713,713.806263 L1051.16713,717.009439 L1052.07603,718.668521 L1051.16713,722.954206 L1051.16713,724.631357 L1052.19927,724.631357 L1052.3745,725.434615 L1052.24163,728.900616 L1053.04655,728.900616 L1053.07736,732.719788 L1052.24163,735.456451 L1052.24163,743.457822 L1050.49701,743.426611 L1050.49701,745.547278 L1048.04183,745.522639 L1048.58678,748.081894 L1050.65876,748.072039 L1048.31719,751.807435 C1048.31719,751.807435 1047.22343,745.056125 1038.21917,740.867355 C1037.39307,740.482974 1036.57661,740.162656 1035.76784,739.875192 C1031.66624,735.569794 1023.89824,736.368124 1023.89824,736.368124 L1023.89824,732.921835 L1022.27108,733.347282 C1021.78775,731.878749 1020.90581,731.098488 1020.124,730.681254 L1020.124,706.563798 L1009.99132,706.563798 L1009.99132,724.340607 L1009.29616,724.340607 L1009.29616,731.799902 L1008.90141,732.138289 L1006.16701,732.138289 L1006.16701,663.399763 L993.319188,663.263422 L993.319188,718.620884 C992.050195,718.765437 990.917923,719.133392 989.987843,719.545698 L989.987843,669.218045 L980.54839,661.167395 L969.210263,669.093203 L969.35276,712.331159 C967.652426,712.153752 966.152358,712.362369 964.877589,712.758249 L964.877589,631.210302 L958.538405,631.147881 L958.426718,630.029234 L963.375595,630.062087 L964.877589,629.469088 L964.877589,628.537703 L963.674068,627.698307 L958.318883,627.604675 L957.444646,596 L956.518416,627.612889 L950.887865,627.612889 L949.684345,628.35044 L949.794106,629.469088 L951.105462,630.030876 L956.518416,630.030876 L956.518416,630.926123 L949.229895,630.926123 L949.229895,709.316888 L946.539786,707.35063 L942.174376,711.541042 L942.174376,716.661197 L940.809102,716.661197 L940.809102,728.762633 L939.443829,728.762633 L939.443829,734.191607 L936.522643,734.191607 L936.522643,705.954374 L933.439705,705.954374 L933.439705,697.299226 L927.516458,697.299226 L927.516458,705.954374 L926.744279,705.954374 L926.744279,713.737271 L917.49739,713.737271 L917.49739,715.021827 C916.238026,715.008686 915.435037,714.997187 915.435037,714.997187 L915.435037,715.432491 L914.624345,715.432491 L914.624345,709.709482 L912.941342,709.709482 L912.941342,707.012243 L901.248899,707.012243 L901.248899,720.2274 L896.979771,720.2274 L896.979771,730.860303 L894.853872,730.860303 L894.853872,728.933469 L891.241384,728.933469 L891.241384,727.663697 L889.539125,727.663697 L889.539125,725.850207 L887.413226,725.850207 L887.413226,730.860303 L885.967076,730.860303 L885.967076,721.548094 L882.965014,705.954374 L879.961027,721.548094 L879.961027,730.395432 L878.928887,730.615548 L878.928887,702.609929 L863.290822,702.609929 L863.290822,708.259018 L861.051311,708.259018 L861.051311,719.576909 L860.360009,719.576909 L859.225811,714.99883 L857.768107,719.576909 L853.822485,719.576909 L853.822485,709.165763 L850.845456,709.165763 L850.845456,711.340638 L842.341861,711.340638 L842.341861,709.709482 L838.303809,709.709482 L838.303809,712.068334 L835.324855,712.068334 L835.324855,710.254843 L832.137932,710.254843 L832.137932,719.688609 C830.574318,719.741174 828.827769,719.772384 828.394502,719.663969 C828.635206,720.385095 828.294369,725.405047 828.294369,725.405047 L825.937394,725.405047 L825.937394,731.558431 L824.02524,731.558431 L824.02524,721.782994 L821.845424,718.29071 L819.65983,722.481122 L819.65983,729.465689 L818.044224,729.465689 L818.044224,703.776214 L806.808156,703.776214 L806.808156,707.895991 L805.562272,707.895991 L805.562272,716.728545 L801.522294,716.728545 L801.522294,704.26901 L794.357013,704.26901 L794.357013,694.250459 L785.244918,694.250459 L785.244918,699.193207 L776.435147,699.193207 L776.435147,718.755581 L775.595571,718.755581 L775.595571,726.788162 L774.769475,727.492861 L774.769475,666.085503 L773.099951,666.085503 L773.099951,655.983177 L771.430427,655.983177 L771.430427,651.708989 L769.758978,651.708989 L769.758978,650.025268 L767.937329,650.025268 L767.937329,647.692699 L766.418005,647.952238 L766.418005,646.787596 L765.50718,646.657826 C765.50718,646.657826 765.422452,636.811755 765.50718,634.999906 C765.601536,632.969585 763.10399,632.775752 763.10399,632.775752 L763.10399,627.616174 L762.345291,627.616174 L762.345291,632.7314 C759.42218,632.825032 759.281609,634.740367 759.281609,634.740367 L759.281609,647.692699 L757.005511,647.692699 L757.005511,649.765729 L755.183862,649.765729 L755.183862,651.838759 L753.360288,651.968529 L753.360288,655.593868 L751.993088,655.723637 L751.993088,665.955733 L751.082264,665.955733 L751.082264,717.457884 L749.678477,718.412266 L749.678477,719.46028 C749.595675,719.458637 749.537906,719.456995 749.537906,719.456995 L749.537906,722.407202 L747.564132,722.407202 L747.564132,693.391351 L738.257548,693.391351 L738.257548,724.58372 L737.858942,724.58372 L733.491607,720.858179 L733.491607,698.83018 L733.491607,695.566226 L730.728323,695.566226 L730.728323,693.391351 L723.453282,693.391351 L723.453282,678.738872 L717.000486,678.738872 L717.000486,708.981786 L710.975181,708.981786 L710.975181,683.430293 L703.151334,683.430293 L703.151334,722.407202 L701.17756,722.407202 L701.17756,720.04835 L697.96753,720.179763 L697.96753,716.896096 L697.776892,716.896096 L697.776892,714.790213 L694.799864,714.790213 L694.799864,712.976722 L693.84475,712.976722 L693.84475,695.697638 L683.057354,695.697638 L683.057354,711.526258 L680.943009,711.526258 L680.943009,695.697638 L671.262852,695.697638 L671.262852,708.804379 L668.224203,708.804379 L668.224203,714.180788 L667.134295,713.637069 L665.769021,714.99883 L665.769021,717.126068 L664.405673,717.360967 L664.405673,728.982749 L662.264369,728.982749 L662.264369,692.157717 L661.343917,691.370886 L661.343917,687.323385 L659.493383,685.746436 L659.493383,676.478579 L656.89763,674.351341 L656.89763,671.456984 L656.499024,671.031536 L656.499024,668.649687 L655.801945,668.137178 L655.801945,665.07527 L654.804467,664.904434 L654.804467,661.842526 L654.405861,661.586272 L654.405861,659.631513 L653.806989,659.204423 L653.806989,657.417214 L653.009777,655.971678 L652.984744,642.176665 L652.984744,642.431276 L652.609246,655.971678 L652.110507,655.971678 L652.110507,658.521078 L650.664356,661.160824 L650.664356,663.416189 L649.118073,664.735241 L649.118073,667.627956 L648.095562,667.627956 L648.095562,670.753927 L647.37345,671.371565 L647.37345,673.881542 L646.824644,674.349698 L646.824644,676.984516 L646.2354,676.984516 L646.2354,686.02733 L644.756514,686.02733 L644.756514,688.340188 L643.031147,688.340188 L643.031147,727.366377 L640.93991,727.366377 L640.93991,725.27035 L639.736389,725.27035 L639.736389,705.951088 L620.212397,705.951088 L620.212397,730.426642 C618.687295,730.507133 617.200707,730.497277 617.200707,730.15889 L617.200707,733.826938 L616.349577,734.551348 L616.349577,722.400632 L610.82301,722.400632 L610.82301,735.044145 L608.059727,735.044145 L608.059727,719.319012 L595.090589,719.319012 L595.090589,740.818076 L591.795831,740.818076 L591.795831,729.744941 L579,729.744941 L579,737.577118 L579,758.594884 L1077.51171,758.323846 C1077.60799,749.939737 1070.10573,747.804286 1070.10573,747.804286" id="path151"></path>
        </g>
    </g>
</svg>